<?xml version="1.0" encoding="UTF-8"?>
<svg version="1.1" viewBox="0 0 1600 1600" width="1280" height="1280" xmlns="http://www.w3.org/2000/svg">
<path transform="translate(219 -.132)" d="m0 0c0.786 0.00251 1.57 0.00502 2.38 0.0076 1.25-0.00192 1.25-0.00192 2.52-0.00387 2.83-0.0031 5.66 0.00102 8.49 0.00502 2.04-7.39e-4 4.08-0.00192 6.12-0.0035 5.66-0.00309 11.3 1.24e-4 17 0.00428 6.14 0.00342 12.3 0.00107 18.4-5.77e-4 10.8-0.00208 21.6-4.52e-4 32.3 0.00364 11.6 0.00437 23.1 0.00657 34.7 0.0061 0.73-2.87e-5 1.46-5.74e-5 2.21-8.69e-5 3.72-1.56e-4 7.44-3.48e-4 11.2-5.53e-4 27-0.00141 53.9 0.00203 80.9 0.00802 26.7 0.00592 53.4 0.00977 80.1 0.0109 0.829 3.44e-5 1.66 6.88e-5 2.51 1.04e-4 7.57 3.13e-4 15.1 6.01e-4 22.7 8.58e-4 18.8 6.39e-4 37.6 0.0016 56.4 0.00278 1.29 8e-5 1.29 8e-5 2.6 1.62e-4 41.7 0.00262 83.4 0.00893 125 0.0155 14.5 0.00229 29 0.00457 43.4 0.00677 1.35 2.05e-4 1.35 2.05e-4 2.72 4.15e-4 41.7 0.00634 83.4 0.0101 125 0.0131 2.71 1.98e-4 5.42 3.97e-4 8.12 5.97e-4 17.9 0.00132 35.9 0.00259 53.8 0.00384 35.7 0.00248 71.4 0.00522 107 0.00814 1.7 1.39e-4 3.4 2.78e-4 5.1 4.17e-4 76.6 0.00625 153 0.0156 230 0.0263 0.717 9.99e-5 1.43 2e-4 2.17 3.03e-4 35.9 5e-3 71.7 0.0102 108 0.0156v2c3.38 0.49 6.76 0.97 10.1 1.39 6.67 0.864 13.2 2.02 19.7 3.54 0.689 0.158 1.38 0.315 2.09 0.478 4.17 1 8.11 2.3 12.1 3.85 2.94 1.11 5.93 2.01 8.94 2.92 1.13 0.344 2.27 0.688 3.44 1.04 0.846 0.254 1.69 0.508 2.56 0.77v2c0.674 0.102 1.35 0.204 2.04 0.309 3.62 0.845 6.89 2.25 10.3 3.75 0.645 0.282 1.29 0.563 1.96 0.854 1.58 0.69 3.16 1.39 4.73 2.08v2c0.572 0.122 1.14 0.245 1.73 0.371 2.37 0.657 4.34 1.57 6.52 2.69 0.706 0.362 1.41 0.724 2.14 1.1 0.531 0.277 1.06 0.554 1.61 0.84v2c0.835 0.402 0.835 0.402 1.69 0.812 2.52 1.3 4.95 2.61 7.31 4.19v2c0.536 0.0619 1.07 0.124 1.62 0.188 3.42 1.17 5.64 3.49 8.38 5.81 0.99 0.33 1.98 0.66 3 1v2c1.65 0.66 3.3 1.32 5 2v2c0.557 0.248 1.11 0.495 1.69 0.75 2.74 1.48 4.99 3.18 7.31 5.25v2h2v2h2c1.62 1.61 1.62 1.61 3.44 3.75 0.597 0.696 1.19 1.39 1.81 2.11 4.75 5.8 4.75 5.8 4.75 8.14h2c3 4.38 3 4.38 3 7h2c1.73 2.34 1.73 2.34 3.62 5.38 0.632 0.998 1.26 2 1.91 3.02 1.46 2.6 1.46 2.6 1.46 4.6h2v3h2c0.838 1.46 1.67 2.91 2.5 4.38 0.464 0.812 0.928 1.62 1.41 2.46 1.09 2.16 1.09 2.16 1.09 4.16h2c4.41 10.4 4.41 10.4 5 16h2c0.255 0.909 0.255 0.909 0.516 1.84 1.58 5.46 3.42 10.6 5.71 15.8 0.849 2.57 0.907 4.64 0.77 7.32h2c0.228 2.05 0.456 4.1 0.684 6.15 0.135 1.86 0.135 1.86 1.32 2.85 0.677 3.31 1.09 6.66 1.56 10 0.139 0.922 0.277 1.84 0.42 2.79 0.83 5.8 1.16 11.3 1.02 17.2h2v4h2c0.0165 36.9 0.0323 73.7 0.0476 111 2.99e-4 0.721 5.99e-4 1.44 9.07e-4 2.19 0.0321 77.3 0.0597 155 0.0785 232 4.18e-4 1.72 8.37e-4 3.43 0.00126 5.15 0.00877 36 0.0169 72.1 0.0244 108 0.00374 18.1 0.00759 36.2 0.0116 54.3 5.98e-4 2.73 0.00119 5.46 0.00179 8.19 0.00918 42 0.0209 84.1 0.04 126 4.11e-4 0.904 8.21e-4 1.81 0.00124 2.74 0.00664 14.6 0.0135 29.2 0.0204 43.7 0.0198 42 0.038 84 0.0458 126 1.61e-4 0.863 3.21e-4 1.73 4.87e-4 2.62 0.0035 18.9 0.00618 37.9 0.0081 56.8 7.85e-4 7.62 0.00169 15.2 0.00263 22.9 1e-4 0.834 2.01e-4 1.67 3.04e-4 2.53 0.00329 26.9 0.0161 53.8 0.0339 80.7 0.0179 27.1 0.0265 54.2 0.022 81.3-6.09e-4 3.74-0.00111 7.48-0.00155 11.2-8.96e-5 0.733-1.79e-4 1.47-2.72e-4 2.22-0.00114 11.6 0.00783 23.3 0.021 34.9 0.0127 11.4 0.0146 22.8 0.00547 34.3-0.00455 6.11-0.00424 12.2 0.00915 18.3 0.0121 5.56 0.0105 11.1-0.00223 16.7-0.00215 2 7.93e-4 4.01 0.00929 6.01 0.0108 2.71 0.00319 5.42-0.00911 8.13 0.00753 0.78 0.0151 1.56 0.0228 2.36-0.047 4.82-1.01 7.96-3.4 12.1-2.11 7.54-3.31 15.2-3.79 23-0.211 2.01-0.211 2.01-1.21 3.01-0.231 1.35-0.412 2.7-0.562 4.06-0.144 1.3-0.289 2.6-0.438 3.94h-2c-0.103 1.3-0.206 2.6-0.312 3.94-0.462 4.25-1.55 7.96-2.99 12-0.891 2.66-1.34 5.31-1.7 8.09h-2c-0.0825 0.763-0.165 1.53-0.25 2.31-1.04 5.1-2.89 9.83-4.75 14.7h-2v3h-2c-0.124 0.557-0.247 1.11-0.375 1.69-0.685 2.53-1.62 4.89-2.62 7.31h-2v3h-2c-0.144 0.619-0.289 1.24-0.438 1.88-0.562 2.12-0.562 2.12-1.56 4.12h-2c-0.464 1.18-0.464 1.18-0.938 2.38-1.06 2.62-1.06 2.62-2.06 4.62h-2c-0.464 1.18-0.464 1.18-0.938 2.38-1.06 2.62-1.06 2.62-2.06 4.62h-2v3h-2c-0.309 0.619-0.619 1.24-0.938 1.88l-2.06 4.12h-2v2h-2v2h-2c-0.402 0.959-0.402 0.959-0.812 1.94-1.19 2.06-1.19 2.06-4.19 3.06v2h-2c-0.402 0.959-0.402 0.959-0.812 1.94-1.19 2.06-1.19 2.06-4.19 3.06v2c-3.46 3-3.46 3-6 3v2h-3v2h-2v2c-4.38 3-4.38 3-7 3v2c-7.43 4.43-7.43 4.43-11 5v2h-3v2c-0.736 0.398-1.47 0.797-2.23 1.21-0.976 0.53-1.95 1.06-2.96 1.61-0.963 0.522-1.93 1.04-2.92 1.58-1.86 1.03-3.71 2.1-5.54 3.2-4.45 2.65-8.15 4.41-13.4 4.41v2c-1.1 0.338-2.19 0.675-3.32 1.02-1.45 0.45-2.91 0.901-4.36 1.35-0.721 0.222-1.44 0.443-2.19 0.672-2.94 0.913-5.82 1.83-8.68 2.99-3.25 1.27-6.57 2.12-9.95 2.96-0.699 0.174-1.4 0.349-2.12 0.529-5.5 1.33-11 2.31-16.6 3.08-1.81 0.257-3.61 0.569-5.39 0.941-3.14 0.6-6.18 0.516-9.38 0.453v2h-2v2h-1203v-2c-1.02 0.0619-1.02 0.0619-2.06 0.125-3.57-0.152-6.53-1.08-9.94-2.12-5.34-1.49-10.4-2.33-15.9-2.75-2.1-0.246-2.1-0.246-4.1-1.25-1.87-0.228-3.75-0.41-5.62-0.562-1-0.0838-2.01-0.168-3.04-0.254-0.771-0.0606-1.54-0.121-2.34-0.184v-2c-1.39 0.124-1.39 0.124-2.81 0.25-4.48 0.00902-8.16-1.56-12.3-3.18-2.84-1.05-5.65-1.84-8.59-2.57-4.11-1.07-7.59-2.51-11.3-4.52-3.51-1.74-7.25-2.84-11-3.98v-2c-1.05-0.402-1.05-0.402-2.12-0.812-3.04-1.26-5.95-2.69-8.88-4.19v-2c-1.08-0.402-1.08-0.402-2.19-0.812-2.81-1.19-5.3-2.46-7.81-4.19v-2c-1.11-0.402-1.11-0.402-2.25-0.812-2.64-1.14-4.61-2.28-6.75-4.19v-2c-0.557-0.0825-1.11-0.165-1.69-0.25-3.05-0.989-4.96-2.6-7.31-4.75v-2h-2v-2h-3v-2c-0.928-0.464-0.928-0.464-1.88-0.938l-4.12-2.06v-2h-2c-2.62-2.37-2.62-2.37-5-5v-2h-2c-1.29-1.46-1.29-1.46-2.62-3.38-0.669-0.94-0.669-0.94-1.35-1.9-1.02-1.73-1.02-1.73-1.02-3.73h-2c-1.29-1.46-1.29-1.46-2.62-3.38-0.669-0.94-0.669-0.94-1.35-1.9-1.02-1.73-1.02-1.73-1.02-3.73h-2c-3-4.38-3-4.38-3-7h-2c-4-5.29-4-5.29-4-9h-2c-0.33-1.65-0.66-3.3-1-5h-2c-1.67-3.33-3.33-6.67-5-10-0.384-0.686-0.768-1.37-1.16-2.08-0.836-1.92-0.836-1.92-0.836-5.92h-2c-3.15-8.21-5.73-16.5-8-25-0.244-0.867-0.487-1.73-0.738-2.63-2.38-8.85-3.25-17.6-3.99-26.7-0.109-1.14-0.218-2.28-0.33-3.46-0.0856-1.02-0.171-2.04-0.26-3.09-0.534-3.25-0.534-3.25-2.69-6.24-2.41-4.14-2.55-7.63-2.49-12.3-0.00549-0.835-0.011-1.67-0.0166-2.53-0.0135-2.81 0.00148-5.61 0.0163-8.42-0.00387-2.04-0.00949-4.08-0.0167-6.11-0.0148-5.63-0.00456-11.3 0.00961-16.9 0.011-6.11-0.0011-12.2-0.0103-18.3-0.0129-10.7-0.0111-21.4 7.8e-4 -32.2 0.0126-11.5 0.0166-23 0.00989-34.5-4.16e-4 -0.726-8.32e-4 -1.45-0.00126-2.2-0.00172-2.96-0.00351-5.91-0.00538-8.87-0.0174-27.6-0.0152-55.1-6.64e-4 -82.7 0.014-26.6 0.021-53.1 0.0183-79.7-1.63e-4 -1.67-3.25e-4 -3.33-4.86e-4 -5-6.58e-4 -6.7-0.00136-13.4-0.00213-20.1-0.00211-18.7-0.00286-37.4-0.00258-56.2 1.24e-5 -0.853 2.48e-5 -1.71 3.75e-5 -2.58 4.89e-4 -27.2 0.00692-54.3 0.0175-81.5 3.43e-4 -0.882 6.87e-4 -1.76 0.00104-2.67 0.0056-14.3 0.0115-28.6 0.0175-42.9 0.0236-56.8 0.0298-114 0.0194-170-6.53e-4 -3.59-0.0013-7.18-0.00196-10.8-1.61e-4 -0.887-3.22e-4 -1.77-4.88e-4 -2.69-0.00178-9.83-0.0035-19.7-0.00515-29.5-1.49e-4 -0.881-2.99e-4 -1.76-4.53e-4 -2.67-0.00785-46.7-0.00225-93.4 0.00857-140 0.00155-6.69 0.00306-13.4 0.00457-20.1 5.68e-4 -2.5 0.00115-4.99 0.00173-7.49 0.0042-18.3 0.0064-36.5 0.00331-54.8-1.39e-4 -0.824-2.77e-4 -1.65-4.2e-4 -2.5-7.1e-4 -4.15-0.00146-8.29-0.00222-12.4-0.00548-29.9-0.00139-59.9 0.02-89.8 0.00206-2.95 0.00408-5.89 0.00606-8.84 4.91e-4 -0.723 9.82e-4 -1.45 0.00149-2.19 0.00752-11.5 0.00499-22.9-0.00166-34.4-0.00632-11.3-0.00172-22.5 0.0139-33.8 0.00805-6.03 0.0113-12.1 0.00143-18.1-0.00882-5.48-0.00403-11 0.012-16.4 0.00334-1.98 0.00156-3.96-0.00573-5.93-0.00913-2.67 1.15e-5 -5.34 0.0139-8.02-0.0106-1.16-0.0106-1.16-0.0214-2.34 0.0478-4.55 0.812-7.2 3.4-10.9 0.969-3.49 0.969-3.49 1.62-7.25 0.126-0.665 0.252-1.33 0.383-2.02 0.781-4.22 1.35-8.42 1.75-12.7 0.68-5.83 2.21-11.2 4.38-16.6 1.93-5.36 3.35-10.9 4.86-16.4h2c0.125-0.722 0.25-1.44 0.379-2.19 0.613-2.77 1.47-5.19 2.56-7.81 0.339-0.825 0.678-1.65 1.03-2.5 0.342-0.825 0.683-1.65 1.04-2.5 0.669-1.67 1.34-3.33 2-5h2c0.99-2.97 1.98-5.94 3-9h2v-3h2c0.0825-0.516 0.165-1.03 0.25-1.56 1.07-3.48 2.89-6.31 4.75-9.44h2c0.0619-0.536 0.124-1.07 0.188-1.62 1.17-3.42 3.49-5.64 5.81-8.38l1-3h2c0.268-0.743 0.536-1.48 0.812-2.25 1.14-2.64 2.28-4.61 4.19-6.75h2c0.66-1.65 1.32-3.3 2-5h2l1-3h2v-2h2c0.402-0.897 0.402-0.897 0.812-1.81 1.19-2.19 2.28-3.6 4.19-5.19h2v-2h2v-2h2c0.33-0.99 0.66-1.98 1-3h2v-2h2v-2h3v-2c1.46-1.29 1.46-1.29 3.38-2.62 0.626-0.446 1.25-0.892 1.9-1.35 1.73-1.02 1.73-1.02 3.73-1.02v-2c1.46-1.29 1.46-1.29 3.38-2.62 0.626-0.446 1.25-0.892 1.9-1.35 1.73-1.02 1.73-1.02 3.73-1.02v-2c1.46-0.838 2.91-1.67 4.38-2.5 0.812-0.464 1.62-0.928 2.46-1.41 2.16-1.09 2.16-1.09 4.16-1.09v-2c2.65-1.46 3.89-2 7-2v-2c1.58-0.843 3.16-1.67 4.75-2.5 0.882-0.464 1.76-0.928 2.67-1.41 2.58-1.09 2.58-1.09 6.58-1.09v-2c9.82-4.83 19.6-8.74 30-12 1.05-0.364 2.11-0.727 3.2-1.1 3.24-1.04 6.44-1.44 9.8-1.9 0.33-0.33 0.66-0.66 1-1 1.74-0.428 3.49-0.803 5.25-1.16 1.08-0.218 2.17-0.436 3.29-0.66 1.14-0.226 2.29-0.451 3.46-0.684 1.11-0.226 2.22-0.451 3.37-0.684 4.95-0.986 9.85-1.9 14.9-2.41 3.8-0.411 6.19-1.52 10.2-1.54zm542 390c-1.42 0.082-2.85 0.134-4.27 0.142-0.762 0.00703-1.52 0.0141-2.31 0.0213-0.804 0.00416-1.61 0.00833-2.44 0.0126-1.76 0.0232-3.53 0.0474-5.29 0.0723-2.73 0.0347-5.47 0.0643-8.2 0.0779-11.3 0.0667-21.6 0.933-32.5 3.76-5.11 1.28-10.2 1.53-15.5 1.74-2.46-0.106-2.46-0.106-3.53 1.18-3.17 0.248-6.33 0.384-9.51 0.523-3.25 0.443-5.6 1.33-8.55 2.7-3.82 1.53-7.9 2.11-11.9 2.84-5.76 1.07-11.4 2.22-17 3.94v2l-3.25 0.25c-5.83 0.703-11.2 2.78-16.8 4.75v2c-0.615 0.133-1.23 0.266-1.86 0.402-0.808 0.177-1.62 0.353-2.45 0.535-0.801 0.174-1.6 0.348-2.43 0.527-2.41 0.534-2.41 0.534-5.26 1.54v2h-4v2c-0.639 0.0825-1.28 0.165-1.94 0.25-4.27 1.05-8.09 2.89-12.1 4.75v2h-3v2h-4v2c-0.701 0.268-1.4 0.536-2.12 0.812-3.04 1.26-5.95 2.69-8.88 4.19v2h-3v2c-1.32 0.33-2.64 0.66-4 1v2h-3v2c-0.545 0.0735-1.09 0.147-1.65 0.223-3.26 1.08-5.3 3-7.91 5.21-2.77 2.34-5.42 4.55-8.44 6.56v2h-2v2h-2v2l-3 1v2h-2v2h-2v2l-3 1v2h-2v2h-2v2h-2c-1.67 1.33-1.67 1.33-3 3v2h-2v2h-2c-3.93 3.88-3.93 3.88-5 9h-2c-2.32 3.22-2.32 3.22-3 7h-2v3h-2c-0.988 1.72-1.96 3.45-2.94 5.19-0.545 0.963-1.09 1.93-1.65 2.92-1.32 2.7-1.98 4.94-2.41 7.89h-2c-0.844 1.41-1.67 2.83-2.5 4.25l-1.41 2.39c-1.37 2.53-1.37 2.53-1.09 6.36h-2v4h-2c-0.387 1.04-0.773 2.08-1.17 3.15-0.526 1.41-1.05 2.82-1.58 4.23-0.275 0.74-0.55 1.48-0.834 2.24-1.4 3.76-2.87 7.46-4.48 11.1-3.06 7.46-4.6 15.5-6.43 23.3-0.509 1.9-0.509 1.9-1.51 3.9-4.08 25.6-4.54 54.8 2 80h2c-0.0619 0.908-0.124 1.82-0.188 2.75-0.0153 7.52 2.66 15.2 5.19 22.2h2c0.0825 0.908 0.165 1.82 0.25 2.75 0.777 5.62 2.87 10.9 4.75 16.2h2v4h2c0.0825 0.681 0.165 1.36 0.25 2.06 0.973 3.81 2.71 6.58 4.75 9.94h2c0.248 0.699 0.495 1.4 0.75 2.12 1.43 3.29 3.23 6.04 5.25 9.01l2.12 3.13c0.928 1.36 0.928 1.36 1.88 2.74l2 3h2v3h2v2h2c0.268 0.639 0.536 1.28 0.812 1.94 1.07 2.39 1.07 2.39 4.19 3.06v2h2v2h2c0.268 0.639 0.536 1.28 0.812 1.94 1.07 2.39 1.07 2.39 4.19 3.06v2h2v2c1.33 1.67 1.33 1.67 3 3h2v2c1.65 0.66 3.3 1.32 5 2v2h2v2c1.32 0.33 2.64 0.66 4 1v2h3v2c1.41 1.36 1.41 1.36 3.25 2.62l1.83 1.35c2.15 1.34 2.15 1.34 5.92 1.02v2h2v2c3.22 2.32 3.22 2.32 7 3v2h3v2h4v2c1.43 0.841 2.87 1.67 4.31 2.5 1.2 0.696 1.2 0.696 2.43 1.41 2.29 1.31 2.29 1.31 5.26 1.09v2c4.26 2.36 4.26 2.36 9 3v2h4v2c1.58 0.843 3.16 1.67 4.75 2.5 1.32 0.696 1.32 0.696 2.67 1.41 2.73 1.35 2.73 1.35 6.58 1.09v2h4v2c1.93 0.84 3.87 1.67 5.81 2.5 1.62 0.696 1.62 0.696 3.27 1.41 2.87 1.27 2.87 1.27 5.92 1.09v2c0.864 0.276 1.73 0.552 2.62 0.836 4.3 1.48 8.42 3.31 12.6 5.14 2.93 1.25 2.93 1.25 6.8 1.02v2c2.19 0.652 4.37 1.3 6.56 1.94 1.22 0.36 2.44 0.719 3.69 1.09 3.62 0.939 7.04 1.52 10.7 1.97v2c7.9 2.47 15.8 4.81 23.8 7.06 2.67 0.782 5.28 1.64 7.9 2.57 4.3 1.49 8.64 2.24 13.1 2.95 2.19 0.43 2.19 0.43 3.19 1.43 2 0.0408 4 0.0425 6 0v2c3.68 0.846 7.37 1.67 11.1 2.5 1.56 0.358 1.56 0.358 3.15 0.723 5.38 1.2 10.3 2.09 15.8 1.78v2c0.993 0.17 1.99 0.34 3.01 0.516 8.03 1.42 15.8 3.17 23.6 5.51 4.48 1.29 9 2.3 13.5 3.32 4.4 1.01 8.66 2.22 12.9 3.78 3.12 0.93 5.7 1.03 8.94 0.875v2c0.998 0.276 2 0.552 3.02 0.836 2.62 0.747 5.2 1.56 7.77 2.45 0.632 0.219 1.26 0.438 1.91 0.664 1.29 0.451 2.58 0.907 3.87 1.37 3.6 1.24 6.62 1.96 10.4 1.68v2h5v2c1.27 0.506 2.54 1 3.81 1.5 0.708 0.278 1.42 0.557 2.14 0.844 2.16 0.809 2.16 0.809 5.04 0.656v2c1.52 0.619 1.52 0.619 3.06 1.25 2.69 1.14 5.18 2.43 7.69 3.94 3.07 2.06 3.07 2.06 6.25 1.81v2c2.82 2.28 2.82 2.28 6 2v2c1.99 1.35 3.99 2.69 6 4 0.33 0.66 0.66 1.32 1 2h2v2h2c1 2 2 4 3 6h2c0.309 0.784 0.619 1.57 0.938 2.38 0.991 2.55 0.991 2.55 2.06 4.62h2v3h2v4h2c0.144 1.09 0.289 2.19 0.438 3.31 0.445 3.62 0.445 3.62 1.56 6.69 0.252 4.47 0.271 8.93 0.295 13.4 0.0115 1.47 0.0319 2.94 0.0615 4.41 0.299 14.8 0.299 14.8-3.49 21.4-1.15 2.05-1.15 2.05-0.864 5.78h-2c-1.46 2.65-2 3.89-2 7h-2c-1.58 1.48-1.58 1.48-3.12 3.38-0.539 0.626-1.08 1.25-1.63 1.9-1.44 1.64-1.44 1.64-1.24 3.73h-2c-0.227 0.784-0.454 1.57-0.688 2.38-1.31 2.62-1.31 2.62-3.94 3.94l-2.38 0.688v2l-6 3v2c-0.784 0.289-1.57 0.577-2.38 0.875-2.72 0.974-2.72 0.974-4.62 3.12-1.64 0.735-3.28 1.46-4.94 2.14-2.23 0.926-4.43 1.92-6.62 2.92-6.08 2.68-11.3 4.1-18 4.65-3.33 0.383-6.3 1.25-9.48 2.29v2c-10.1 0.882-20.3 1.11-30.4 1.12-1.79 0.00677-1.79 0.00677-3.62 0.0137-6.4-0.0107-12.6-0.284-18.9-1.14v-2h-4v-2c-0.568 0.0116-1.14 0.0232-1.72 0.0352-7.9 0.0924-14-0.786-21.2-4.18-2.46-1.01-4.45-1.2-7.09-0.855v-2c-1.77-0.84-3.54-1.67-5.31-2.5-0.986-0.464-1.97-0.928-2.99-1.41-2.68-1.28-2.68-1.28-5.7-1.09v-2h-2v-2c-3.22-2.32-3.22-2.32-7-3v-2h-3v-2h-2v-2c-1.32-0.33-2.64-0.66-4-1v-2h-2v-2c-2.33-2.67-2.33-2.67-5-5h-2v-2h-2c-0.33-1.32-0.66-2.64-1-4h-2v-2h-2v-3h-2c-0.309-0.784-0.619-1.57-0.938-2.38-0.991-2.55-0.991-2.55-2.06-4.62h-2v-4h-2c-0.103-0.722-0.206-1.44-0.312-2.19-0.751-3.07-2.04-5.13-3.69-7.81-0.688-2.31-0.688-2.31-1-4h-2c-0.103-0.99-0.206-1.98-0.312-3-0.395-2.85-1.11-5.28-2.19-7.94-1.61-4.03-2.12-7.75-2.5-12.1h-2v-9h-2c-0.516-4.07-1.02-8.13-1.46-12.2-0.078-0.687-0.156-1.37-0.236-2.08-0.16-1.41-0.314-2.82-0.461-4.23-0.4-4.18-0.4-4.18-2.84-7.47-2.95-0.117-5.79-0.113-8.73-0.0117-0.871 0.0227-1.74 0.0453-2.64 0.0686-1.85 0.05-3.69 0.105-5.54 0.165-2.81 0.0902-5.63 0.165-8.44 0.238-1.79 0.0505-3.59 0.102-5.38 0.154-0.838 0.023-1.68 0.046-2.54 0.0697-4.33 0.144-8.45 0.531-12.7 1.32-1.4 0.121-2.8 0.217-4.2 0.281-0.734 0.0374-1.47 0.0748-2.22 0.113-1.52 0.0709-3.04 0.141-4.56 0.211-3.21 0.164-5.95 0.372-9.01 1.39-1.33 0.162-2.68 0.282-4.02 0.373-1.22 0.0852-1.22 0.0852-2.47 0.172-0.888 0.0573-1.78 0.115-2.69 0.174-1.4 0.0937-1.4 0.0937-2.84 0.189-3.1 0.203-6.2 0.398-9.3 0.592-1.06 0.0676-2.12 0.135-3.22 0.205-17.9 1.13-35.8 1.73-53.8 1.92-12 0.145-23.8 0.993-35.7 2.38v2l-3.22-0.0352c-1.43-0.00939-2.85-0.0185-4.28-0.0273-0.696-0.00838-1.39-0.0168-2.11-0.0254-4.08-0.0189-7.96 0.273-12 0.836-6.81 0.72-13.7 0.67-20.6 0.857-1.22 0.0374-2.44 0.0748-3.69 0.113-1.11 0.0303-2.21 0.0606-3.35 0.0918-2.87 0.0782-2.87 0.0782-5.78 1.19-0.335 13.7-0.31 26.6 3 40 0.275 1.12 0.549 2.24 0.832 3.39 0.504 2.01 1.02 4.02 1.54 6.03 0.778 3.19 1.26 6.32 1.63 9.57h2c-0.0619 1.13-0.124 2.27-0.188 3.44 0.00708 4.05 0.879 7.23 2.27 11 1.07 2.99 1.96 6.01 2.86 9.05 1.41 4.62 3.06 8.92 5.11 13.3 1.69 3.95 2.81 8.08 3.95 12.2h2c0.122 0.695 0.245 1.39 0.371 2.11 0.687 3.16 1.65 6.14 2.69 9.21 0.362 1.07 0.724 2.14 1.1 3.24 0.416 1.21 0.416 1.21 0.84 2.45h2c0.227 0.784 0.454 1.57 0.688 2.38 1.72 4.75 3.99 9.15 6.31 13.6h2c0.0825 0.516 0.165 1.03 0.25 1.56 1.07 3.48 2.89 6.31 4.75 9.44h2v3h2c0.268 0.969 0.536 1.94 0.812 2.94 0.588 1.52 0.588 1.52 1.19 3.06 0.99 0.33 1.98 0.66 3 1v2h2l0.375 1.81c0.58 2.45 0.58 2.45 2.62 5.19h2v2h2c0.268 0.742 0.536 1.49 0.812 2.25 1.14 2.64 2.28 4.61 4.19 6.75h2v2h2v3h2v2h2l0.812 1.77c1.2 2.26 2.53 4.04 4.19 5.98 0.516 0.614 1.03 1.23 1.56 1.86 1.34 1.62 1.34 1.62 3.44 1.39v2c2.64 2.4 2.64 2.4 6 3 0.247 0.598 0.495 1.2 0.75 1.81 1.43 2.5 2.82 3.67 5.25 5.19h2v2c0.969 0.268 1.94 0.536 2.94 0.812 1.52 0.588 1.52 0.588 3.06 1.19 0.495 1.49 0.495 1.49 1 3h2v2c3.44 2.65 7.28 4.77 11 7 1.15 0.694 1.15 0.694 2.32 1.4 2.53 1.52 5.07 3.03 7.62 4.54 0.829 0.497 1.66 0.994 2.51 1.51 0.789 0.461 1.58 0.922 2.39 1.4 0.705 0.416 1.41 0.833 2.14 1.26 2.26 1.17 2.26 1.17 6.02 0.899v2c1.77 0.84 3.54 1.67 5.31 2.5 0.986 0.464 1.97 0.928 2.99 1.41 2.68 1.28 2.68 1.28 5.7 1.09v2c1.73 0.65 3.46 1.3 5.19 1.94 1.44 0.539 1.44 0.539 2.92 1.09 2.63 0.884 5.16 1.5 7.89 1.97v2c3.49 0.999 6.97 1.99 10.5 2.96 1.15 0.321 2.29 0.642 3.47 0.973 1.14 0.318 2.29 0.637 3.46 0.965 2.56 0.781 4.95 1.61 7.42 2.59 4.58 1.75 9.25 2.7 14.1 3.63 1.69 0.334 3.37 0.669 5.05 1.01 0.735 0.143 1.47 0.286 2.23 0.434 1.84 0.433 1.84 0.433 3.84 1.43 1.83 0.254 3.66 0.456 5.5 0.625 0.98 0.0954 1.96 0.191 2.97 0.289 2.53 0.287 2.53 0.287 4.53-0.914v2c0.831 0.0606 1.66 0.121 2.52 0.184 1.09 0.0838 2.17 0.168 3.29 0.254 1.08 0.0812 2.16 0.162 3.27 0.246 2.92 0.316 2.92 0.316 5.92 1.32 2.37 0.338 4.75 0.647 7.12 0.938 5.72 0.724 11.3 1.71 16.9 3.06 3.61 0.818 7.01 1.17 10.7 1.28 1.62 0.0561 1.62 0.0561 3.27 0.113l3.39 0.105c2.22 0.0694 4.43 0.142 6.65 0.219 1.47 0.0454 1.47 0.0454 2.97 0.0918 3.01 0.189 3.01 0.189 5.99 0.693 5.09 0.738 10.2 0.636 15.3 0.626 1.12 0.00175 2.23 0.0035 3.38 0.00531 3.68 0.00439 7.35 0.00149 11-0.00189 2.56 6.74e-4 5.12 0.00164 7.68 0.0029 5.36 0.00147 10.7-5.69e-4 16.1-0.00534 6.19-0.00545 12.4-0.00367 18.6 0.00183 5.96 0.00509 11.9 0.00455 17.9 0.00162 2.53-6.68e-4 5.07 1.54e-4 7.6 0.00248 3.54 0.00253 7.07-0.00132 10.6-0.0069 1.05 0.00202 2.1 0.00405 3.18 0.00613 0.963-0.00282 1.93-0.00564 2.92-0.00854 0.835-3.77e-4 1.67-7.54e-4 2.53-0.00114 2.22-0.123 4.13-0.54 6.27-1.13 1.48-0.109 2.96-0.177 4.45-0.211 0.849-0.0284 1.7-0.0567 2.57-0.0859 1.76-0.0515 3.52-0.0959 5.27-0.133 5.29-0.192 9.64-1.03 14.6-2.86 3.07-1.05 6.13-1.41 9.34-1.78l3.93-0.48c1.26-0.151 2.52-0.302 3.82-0.457 9.24-1.19 18.1-3.15 27.1-5.51 2.81-0.724 5.64-1.38 8.46-2.05 4.39-1.09 8.28-2.65 12.4-4.44 3.52-1.07 7.05-2.06 10.6-3.04 3.17-0.899 6.29-1.9 9.4-2.96v-2c0.703 0.0541 1.41 0.108 2.13 0.164 3.49-0.199 5.68-1.25 8.81-2.79 1.13-0.541 2.25-1.08 3.41-1.64 0.591-0.284 1.18-0.568 1.79-0.861 3.19-1.5 6.43-2.87 9.67-4.25 1.18-0.503 2.36-1.01 3.58-1.52 0.86-0.364 1.72-0.727 2.61-1.1v-2h4v-2l2.06-0.25c3.81-0.973 6.58-2.71 9.94-4.75v-2l1.56-0.25c3.48-1.07 6.31-2.89 9.44-4.75v-2h3v-2h4v-2c0.557-0.268 1.11-0.536 1.69-0.812 2.52-1.3 4.95-2.61 7.31-4.19v-2c0.557-0.268 1.11-0.536 1.69-0.812 2.52-1.3 4.95-2.61 7.31-4.19v-2c0.516-0.227 1.03-0.454 1.56-0.688 4.53-2.44 9.02-5.42 12.4-9.31v-2c0.557-0.227 1.11-0.454 1.69-0.688 2.97-1.69 4.96-3.84 7.31-6.31 0.928-0.887 1.86-1.77 2.81-2.69 2.42-2.02 2.42-2.02 2.19-4.31h2v-2h2c0.33-1.32 0.66-2.64 1-4h2c1.42-1.72 2.77-3.5 4.06-5.31 0.713-0.986 1.43-1.97 2.16-2.99 1.9-2.63 1.9-2.63 2.78-5.7h2c1.05-1.63 2.04-3.31 3-5 1.58-2.35 3.18-4.68 4.79-7.01 1.38-1.89 1.38-1.89 1.21-3.99h2c2.36-4.26 2.36-4.26 3-9h2c2.37-2.95 2.37-2.95 2-7h2c2.36-4.26 2.36-4.26 3-9h2v-5h2c0.844-2.06 1.67-4.12 2.5-6.19 0.464-1.15 0.928-2.3 1.41-3.48 1-3.05 1.33-5.16 1.09-8.33h2c0.277-0.915 0.554-1.83 0.84-2.77 0.362-1.19 0.724-2.38 1.1-3.6 0.539-1.78 0.539-1.78 1.09-3.59 0.973-3.04 0.973-3.04 1.97-5.04 0.0402-2.33 0.0432-4.67 0-7h2l0.375-3.06c0.788-4.97 2.23-9.63 3.69-14.4 1.33-5.27 1.42-10.7 1.69-16.1 0.246-3.39 0.246-3.39 0.753-5.3 0.56-2.38 0.62-4.51 0.622-6.95 0.00315-0.961 0.0063-1.92 0.00955-2.91-0.00202-1.03-0.00405-2.06-0.00613-3.13 9.57e-4 -1.07 0.00191-2.14 0.0029-3.24 6.8e-4 -2.26-0.00116-4.52-0.00534-6.77-0.00534-3.45-5.51e-5 -6.9 0.00635-10.3-6.61e-4 -2.2-0.00194-4.39-0.00391-6.59 0.00202-1.03 0.00405-2.06 0.00613-3.12-0.0157-4.81-0.203-9.31-1.14-14-0.0722-1.89-0.143-3.77-0.19-5.66-0.297-10.3-2.71-19.5-5.81-29.3h-2c0.0516-1 0.103-2 0.156-3.04-0.169-4.3-1.13-7.39-2.66-11.4-0.238-0.636-0.477-1.27-0.723-1.93-0.582-1.55-1.18-3.09-1.78-4.63h-2v-6h-2c-0.124-1.24-0.124-1.24-0.25-2.5-0.914-4.27-2.67-7.69-4.75-11.5h-2c-0.0825-0.66-0.165-1.32-0.25-2-0.998-3.99-2.82-7.39-4.75-11h-2v-3h-2c-0.268-0.887-0.536-1.77-0.812-2.69-1.11-3.1-2.29-5.62-4.19-8.31h-2v-3h-2c-0.33-1.32-0.66-2.64-1-4h-2v-2h-2v-3h-2v-2h-2c-0.33-0.99-0.66-1.98-1-3h-2v-2h-2v-2h-2c-0.268-0.639-0.536-1.28-0.812-1.94-1.07-2.39-1.07-2.39-4.19-3.06v-2h-2v-2h-2v-2c-1.33-1.67-1.33-1.67-3-3h-2v-2h-3v-2h-2v-2c-1.49-1.36-1.49-1.36-3.38-2.62-0.626-0.446-1.25-0.892-1.9-1.35-1.68-1.19-1.68-1.19-3.73-1.02v-2c-1.68-1.37-1.68-1.37-3.81-2.62-0.708-0.446-1.42-0.892-2.14-1.35-2.11-1.25-2.11-1.25-5.04-1.02v-2h-3v-2c-1.68-1.37-1.68-1.37-3.81-2.62-0.708-0.446-1.42-0.892-2.14-1.35-2.11-1.25-2.11-1.25-5.04-1.02v-2c-1.43-0.841-2.87-1.67-4.31-2.5-1.2-0.696-1.2-0.696-2.43-1.41-2.29-1.31-2.29-1.31-5.26-1.09v-2h-4v-2c-1.58-0.843-3.16-1.67-4.75-2.5-1.32-0.696-1.32-0.696-2.67-1.41-2.73-1.35-2.73-1.35-6.58-1.09v-2c-1.61-0.742-1.61-0.742-3.25-1.5l-1.83-0.844c-2.21-0.872-2.21-0.872-5.92-0.656v-2h-5v-2h-4v-2c-2.06-0.649-4.12-1.29-6.19-1.94-1.15-0.36-2.3-0.719-3.48-1.09-2.78-0.81-5.49-1.46-8.33-1.97v-2c-0.927-0.277-1.85-0.554-2.81-0.84-1.2-0.362-2.4-0.724-3.63-1.1-1.19-0.36-2.39-0.719-3.62-1.09-2.94-0.973-2.94-0.973-3.94-1.97-1.67-0.0406-3.33-0.0427-5 0v-2c-9.83-3.25-9.83-3.25-20-5v-2c-0.834-0.254-1.67-0.508-2.53-0.77l-3.41-1.04c-1.19-0.362-2.38-0.724-3.6-1.1-2.79-0.879-5.53-1.83-8.27-2.84-4.19-1.44-7.78-1.49-12.2-1.25v-2c-1.58-0.456-3.16-0.91-4.74-1.36-1.65-0.469-3.29-0.953-4.93-1.45-5.29-1.54-9.82-2.57-15.3-2.2v-2c-0.906-0.193-1.81-0.387-2.75-0.586-1.83-0.391-1.83-0.391-3.69-0.789-1.29-0.275-2.57-0.549-3.9-0.832-2.75-0.595-5.49-1.21-8.23-1.86-7.34-1.64-14.9-3.13-22.4-2.94v-2c-5.26-1.67-10.5-2.63-15.9-3.5-6.37-1.03-12-2-17.9-4.77-4.35-1.45-8.98-1.72-13.5-2.26-5.69-0.717-10.9-1.75-16.2-3.9-4.61-1.84-9.42-2.53-14.3-3.36-5.41-0.967-10.4-2.49-15.6-4.43-2.65-0.8-4.8-0.913-7.55-0.77v-2c-1.92-0.648-3.83-1.29-5.75-1.94-1.07-0.36-2.13-0.719-3.23-1.09-2.33-0.752-4.63-1.42-7.02-1.97v-2l-3.19-1.25c-3.41-1.44-5.96-3.39-8.81-5.75h-2v-2h-2v-2h-2c-0.247-0.701-0.495-1.4-0.75-2.12-1.18-2.98-1.18-2.98-3.25-5.69-4.04-6.45-4.3-13.1-4.19-20.5 6.45e-4 -0.797 0.00129-1.59 0.00195-2.42 0.0252-3.33 0.125-6.09 1.19-9.27 0.0395-2.33 0.044-4.67 0-7h2v-4h2c0.33-1.65 0.66-3.3 1-5h2c0.371-0.681 0.743-1.36 1.12-2.06 4.07-6.38 10.3-10.5 16.9-13.9v-2h4v-2l2.06-0.312c3.53-0.827 6.62-2.23 9.94-3.69 8.84-3.34 17.6-4.3 26.9-4.23 1.5 6.87e-4 1.5 6.87e-4 3.03 0.00139 2.09 3e-3 4.19 0.0108 6.28 0.0233 3.21 0.0184 6.42 0.0205 9.63 0.0203 2.04 0.00491 4.08 0.0107 6.12 0.0176 1.44 0.00167 1.44 0.00167 2.91 0.00337 0.888 0.00638 1.78 0.0128 2.69 0.0193 1.17 0.00572 1.17 0.00572 2.36 0.0116 2.04 0.134 2.04 0.134 5.04 1.13 1.56 0.0674 3.13 0.0851 4.69 0.0625 0.808-0.00902 1.62-0.018 2.45-0.0273l1.86-0.0352v2l2.17 0.48c6.93 1.62 13.4 3.77 20 6.43 2.28 0.879 4.43 1.57 6.81 2.09v2c1.65 0.33 3.3 0.66 5 1v2h4v2c3.22 2.32 3.22 2.32 7 3v2h2v2h2v2c1.33 1.67 1.33 1.67 3 3h2c0.268 0.557 0.536 1.11 0.812 1.69 1.3 2.52 2.61 4.95 4.19 7.31h2c0.113 0.578 0.227 1.16 0.344 1.75 0.716 2.45 1.73 4.13 3.16 6.25 1.79 2.66 2.88 4.84 3.5 8h2c0.103 0.846 0.206 1.69 0.312 2.56 0.758 3.79 2.11 6.91 3.69 10.4 1.43 3.71 2.24 7.28 2.88 11.2 1 5.89 2.92 11.3 5.12 16.8h2v2c6.76 0.0253 13.5 0.0429 20.3 0.0549 2.3 0.00503 4.6 0.0119 6.9 0.0205 3.31 0.0121 6.61 0.0178 9.92 0.0222 1.03 0.00516 2.06 0.0103 3.12 0.0156 0.961 7.55e-5 1.92 1.51e-4 2.91 2.29e-4 0.844 0.00222 1.69 0.00444 2.56 0.00673 2.24-0.117 4.14-0.556 6.3-1.12 2.77-0.117 5.53-0.185 8.3-0.211 1.7-0.026 3.4-0.0527 5.11-0.0801 0.892-0.0133 1.78-0.0266 2.7-0.0403 29.3 0.434 29.3 0.434 57.9-4.67 1.64-0.136 3.28-0.224 4.93-0.281 1.44-0.0561 1.44-0.0561 2.91-0.113 1-0.0348 2-0.0696 3.04-0.105 1.98-0.0692 3.95-0.142 5.93-0.219 0.876-0.0303 1.75-0.0606 2.66-0.0918 2.53-0.131 2.53-0.131 4.9-0.69 2.54-0.48 4.85-0.642 7.43-0.673 0.926-0.0135 1.85-0.027 2.81-0.0409 0.996-0.0104 1.99-0.0209 3.02-0.0316 2.16-0.033 4.32-0.0662 6.47-0.0996 3.36-0.0468 6.72-0.0911 10.1-0.131 11.9-0.148 23.7-0.423 35.5-1.31 0.937-0.0596 1.87-0.119 2.84-0.181 5.83-0.494 9.6-1.76 14.5-5.03 0.23-5.59-0.608-10.4-1.94-15.8-1.33-5.67-2.42-11.2-2.86-17-0.81-8.87-3.58-17.1-6.83-25.3-1.39-3.62-1.97-7.02-2.38-10.9h-2v-5h-2c-0.186-1.83-0.186-1.83-0.375-3.69-0.414-3.38-1.17-6.21-2.62-9.31h-2v-5h-2c-0.124-0.959-0.124-0.959-0.25-1.94-1.05-4.27-2.89-8.09-4.75-12.1h-2v-4h-2c-0.33-1.65-0.66-3.3-1-5h-2c-0.144-0.598-0.289-1.2-0.438-1.81-0.45-1.75-0.991-3.47-1.56-5.19h-2c-0.309-0.784-0.619-1.57-0.938-2.38-0.991-2.55-0.991-2.55-2.06-4.62h-2c-0.66-1.98-1.32-3.96-2-6h-2c-0.268-0.557-0.536-1.11-0.812-1.69-1.3-2.52-2.61-4.95-4.19-7.31h-2c-0.206-0.681-0.412-1.36-0.625-2.06-1.8-3.85-4.28-7.02-7.38-9.94h-2v-2h-2v-2h-2v-2c-1.48-1.58-1.48-1.58-3.38-3.12l-1.9-1.63c-1.64-1.44-1.64-1.44-3.73-1.24v-2c-2.17-1.82-2.17-1.82-4.88-3.62l-2.74-1.91c-2.2-1.64-2.2-1.64-4.38-1.46v-2c-0.969-0.268-1.94-0.536-2.94-0.812-1.01-0.392-2.02-0.784-3.06-1.19-0.33-0.99-0.66-1.98-1-3-2.82-2.28-2.82-2.28-6-2v-2h-3v-2c-1.46-0.838-2.91-1.67-4.38-2.5-1.22-0.696-1.22-0.696-2.46-1.41-2.06-1.24-2.06-1.24-4.16-1.09v-2c-1.58-0.843-3.16-1.67-4.75-2.5l-2.67-1.41c-2.73-1.35-2.73-1.35-6.58-1.09v-2h-4v-2l-1.98-0.699c-5.11-1.83-10.1-3.74-15.1-5.86-9.59-4.38-9.59-4.38-19.9-5.44v-2c-0.969-0.103-1.94-0.206-2.94-0.312-3.74-0.526-7.09-1.67-10.6-2.93-3.43-1.08-6.91-1.71-10.4-2.33-1.97-0.43-1.97-0.43-2.97-1.43-6.16-1.62-12.4-2.31-18.8-2.75-2.25-0.246-2.25-0.246-4.25-1.25-2.2-0.272-4.4-0.445-6.61-0.621-2.39-0.379-2.39-0.379-4.82-1.38-2.86-1.11-5.26-1.37-8.32-1.56-5.15-0.337-5.15-0.337-6.25-1.44-3.02-0.148-6.02-0.235-9.04-0.281-0.914-0.0184-1.83-0.0368-2.77-0.0558-2.94-0.0589-5.88-0.112-8.82-0.163-2.92-0.0515-5.83-0.105-8.75-0.163-1.82-0.0364-3.64-0.0689-5.45-0.0969-0.837-0.0167-1.67-0.0334-2.54-0.0507-0.728-0.0125-1.46-0.0251-2.2-0.038-2.43-0.151-2.43-0.151-5.78-0.655-3.61-0.491-7.03-0.623-10.7-0.626-0.994-0.00263-0.994-0.00263-2.01-0.00531-2.17-0.00436-4.34-0.0015-6.51 0.00189-1.52-6.75e-4 -3.04-0.00165-4.56-0.0029-3.18-0.00147-6.35 6.54e-4 -9.53 0.00534-4.06 0.0057-8.12 0.00241-12.2-0.00357-3.14-0.00363-6.27-0.00246-9.41 1.28e-4 -1.5 6.64e-4 -2.99-1.4e-4 -4.49-0.00248-2.1-0.00256-4.19 0.00136-6.29 0.0069-1.78 0.00119-1.78 0.00119-3.6 0.00241-3.53 0.131-6.92 0.601-10.4 1.13z" fill="#000100"/>
</svg>
